<svg width="268" height="102" viewBox="0 0 268 102" fill="none" xmlns="http://www.w3.org/2000/svg">
<path d="M59.837 73.845L53.7453 89H54.7429L56.6744 84.1394H63.9335L65.8438 89H66.8414L60.8558 73.845H59.837ZM56.9716 83.3328L60.3464 74.7577H60.3889L63.6363 83.3328H56.9716ZM67.346 85.3705C67.4097 87.9175 69.2775 89.2547 71.7609 89.2547C73.6712 89.2547 76.0272 88.5967 76.0272 86.2407C76.0272 83.9483 74.3292 83.4389 72.1642 83.0357C70.4025 82.6536 68.5346 82.3777 68.5346 80.6372C68.5346 79.0877 70.1902 78.5359 71.676 78.5359C73.5014 78.5359 74.881 79.3424 74.9022 81.3164H75.7088C75.7088 78.833 73.9895 77.8354 71.676 77.8354C69.8294 77.8354 67.728 78.4722 67.728 80.6372C67.728 82.8658 69.5959 83.354 71.4849 83.7361C73.3528 84.1182 75.2206 84.3941 75.2206 86.2407C75.2206 88.1298 73.183 88.5543 71.7609 88.5543C69.7869 88.5543 68.2799 87.3869 68.1526 85.3705H67.346ZM78.0318 89H78.8384V84.8823L81.3218 82.7809L85.9701 89H87.0739L81.9585 82.1654L86.7343 78.0901H85.5669L78.8384 83.8847V73.845H78.0318V89ZM90.1068 89V86.8138H89.0243V89H90.1068ZM110.603 78.175C110.454 74.8426 107.971 73.4842 104.808 73.4842C102.41 73.4842 99.7143 74.6092 99.7143 77.517C99.7143 80.4037 102.304 81.0192 104.872 81.5499C107.462 82.0805 110.051 82.5262 110.051 85.0945C110.051 87.7265 107.483 88.5543 105.657 88.5543C102.665 88.5543 100.011 87.302 100.202 83.9908H99.2685C99.2261 87.8963 102.113 89.3608 105.657 89.3608C107.971 89.3608 110.985 88.2359 110.985 85.0945C110.985 82.0805 108.395 81.4225 105.806 80.8919C103.238 80.3612 100.648 79.958 100.648 77.517C100.648 75.0124 103.089 74.2908 104.808 74.2908C107.61 74.2908 109.563 75.5855 109.669 78.175H110.603ZM112.638 78.0901H111.768L115.228 89H116.246L119.26 79.1089H119.303L122.296 89H123.293L126.795 78.0901H125.904L122.848 88.0661H122.805L119.812 78.0901H118.73L115.758 88.0661H115.716L112.638 78.0901ZM128.941 89V78.0901H128.135V89H128.941ZM128.941 76.0313V73.845H128.135V76.0313H128.941ZM136.518 88.5543C133.44 88.5543 132.528 86.1558 132.528 83.5663C132.528 80.9768 133.61 78.5359 136.518 78.5359C139.447 78.5359 140.615 81.0829 140.615 83.5663C140.615 86.2619 139.362 88.5543 136.518 88.5543ZM132.507 78.0901H131.7V92.9055H132.507V86.7289H132.549C133.186 88.4906 134.714 89.2547 136.518 89.2547C139.851 89.2547 141.421 86.8775 141.421 83.5663C141.421 80.4886 139.872 77.8354 136.518 77.8354C134.12 77.8354 132.889 79.5122 132.549 80.5947H132.507V78.0901ZM152.43 83.6512C152.579 80.5311 151.05 77.8354 147.633 77.8354C144.343 77.8354 142.773 80.7433 142.815 83.7361C142.773 86.7501 144.449 89.2547 147.633 89.2547C150.223 89.2547 151.921 87.8538 152.345 85.3068H151.539C151.157 87.3232 149.692 88.5543 147.633 88.5543C144.938 88.5543 143.579 86.2195 143.622 83.6512H152.43ZM143.622 82.9508C143.791 80.7858 145.213 78.5359 147.633 78.5359C150.138 78.5359 151.581 80.6584 151.624 82.9508H143.622ZM156.602 89V86.8138H155.52V89H156.602ZM166.273 89H175.803V88.1934H167.207V73.845H166.273V89ZM185.864 83.6512C186.013 80.5311 184.485 77.8354 181.067 77.8354C177.777 77.8354 176.207 80.7433 176.249 83.7361C176.207 86.7501 177.884 89.2547 181.067 89.2547C183.657 89.2547 185.355 87.8538 185.779 85.3068H184.973C184.591 87.3232 183.126 88.5543 181.067 88.5543C178.372 88.5543 177.013 86.2195 177.056 83.6512H185.864ZM177.056 82.9508C177.226 80.7858 178.648 78.5359 181.067 78.5359C183.572 78.5359 185.015 80.6584 185.058 82.9508H177.056ZM194.982 84.8398C194.982 85.4129 194.579 88.5543 190.907 88.5543C188.996 88.5543 188.041 87.493 188.041 86.177C188.041 84.5427 189.124 83.8634 191.034 83.6512C192.605 83.4389 194.345 83.5238 194.982 82.8022V84.8398ZM195.788 80.6796C195.788 78.4297 193.878 77.8354 191.968 77.8354C189.4 77.8354 187.914 79.0453 187.808 81.4437H188.614C188.72 79.5547 190.015 78.5359 191.968 78.5359C194.451 78.5359 195.003 80.1914 195.003 80.6796C195.003 82.4626 194.854 82.696 191.246 82.9508C189.442 83.0993 187.235 83.63 187.235 86.177C187.235 88.4694 188.826 89.2547 190.885 89.2547C192.965 89.2547 194.43 88.1298 194.939 86.835H194.982V87.4081C194.982 88.2996 195.173 89 196.446 89C196.659 89 196.871 88.9575 197.104 88.9151V88.2359C196.85 88.2783 196.659 88.2996 196.51 88.2996C195.788 88.2996 195.788 87.6203 195.788 86.9836V80.6796ZM199.163 78.0901H198.357V89H199.163V83.0357C199.248 81.4013 199.588 80.7221 200.394 79.8943C201.371 78.9391 202.559 78.7269 203.408 78.833V78.0265C201.434 77.9415 199.651 79.0877 199.227 80.5098H199.163V78.0901ZM204.264 89H205.071V83.0993C205.071 80.4249 206.556 78.5359 208.997 78.5359C211.969 78.5359 212.096 80.9768 212.096 82.1017V89H212.903V82.2503C212.903 80.9131 212.86 77.8354 209.019 77.8354C207.321 77.8354 205.665 78.7906 205.113 80.4249H205.071V78.0901H204.264V89Z" fill="white"/>
<path d="M61.2942 42.4542C61.5027 54.7593 70.6794 60.1818 82.0112 60.1818C91.8831 60.1818 101.755 55.7325 101.755 44.6093C101.755 39.4648 98.6265 33.9032 92.0916 31.9566C89.5194 31.1919 78.5352 28.3416 77.7705 28.133C74.2249 27.1597 71.8612 25.2132 71.8612 21.7372C71.8612 16.7317 76.9362 15.2718 80.9684 15.2718C86.9471 15.2718 91.2574 17.6355 91.6745 24.0313H100.365C100.365 13.6728 91.6745 8.18073 81.316 8.18073C72.3479 8.18073 63.1712 12.8386 63.1712 22.78C63.1712 27.9245 65.6739 33.069 74.1554 35.3631C80.9684 37.2402 85.4872 38.1439 88.9632 39.4648C90.9793 40.2295 93.0649 41.759 93.0649 45.5826C93.0649 49.3367 90.2146 53.0908 82.5674 53.0908C75.6153 53.0908 69.9842 50.1014 69.9842 42.4542H61.2942ZM108.459 59H116.385V9.36257H108.459V59ZM157.625 43.0799C158.946 32.3042 151.994 22.0848 140.662 22.0848C129.956 22.0848 123.282 30.8443 123.282 41.0638C123.282 52.1175 129.608 59.9733 140.87 59.9733C148.726 59.9733 155.4 55.5935 157.138 47.7377H149.63C148.24 51.7004 145.459 53.7165 140.87 53.7165C134.266 53.7165 131.207 48.711 131.207 43.0799H157.625ZM131.207 37.8659C131.416 32.5128 135.17 28.3416 140.662 28.3416C146.015 28.3416 149.421 32.8604 149.699 37.8659H131.207ZM185.827 46.9035C185.827 51.9089 180.404 53.7165 176.928 53.7165C174.147 53.7165 169.628 52.6737 169.628 49.1281C169.628 44.9569 172.687 43.7056 176.094 43.1494C179.57 42.5237 183.393 42.5932 185.827 40.9943V46.9035ZM193.752 32.5128C193.752 24.9351 186.383 22.0848 179.361 22.0848C171.436 22.0848 163.58 24.7961 163.024 34.0422H170.949C171.297 30.1491 174.425 28.3416 178.875 28.3416C182.072 28.3416 186.313 29.1063 186.313 33.208C186.313 37.8659 181.238 37.2402 175.538 38.283C168.864 39.0477 161.703 40.5076 161.703 49.4757C161.703 56.4973 167.543 59.9733 174.008 59.9733C178.249 59.9733 183.324 58.6524 186.452 55.5935C187.078 58.861 189.372 59.9733 192.57 59.9733C193.891 59.9733 196.394 59.4866 197.576 59.0695V53.5774C196.741 53.7165 196.116 53.7165 195.629 53.7165C194.169 53.7165 193.752 52.9517 193.752 51.0052V32.5128ZM202.28 59H210.205V41.898C210.205 33.9727 214.515 29.593 219.938 29.593C221.05 29.593 222.232 29.8015 223.344 29.9406V22.2933C222.649 22.2238 222.162 22.0848 220.355 22.0848C215.488 22.0848 210.761 26.1865 209.857 30.0101H209.718V23.058H202.28V59ZM227.942 59H235.868V37.7963C235.868 32.5128 239.274 28.3416 244.558 28.3416C249.215 28.3416 251.44 30.7748 251.579 36.4059V59H259.504V34.3203C259.504 26.256 254.568 22.0848 246.782 22.0848C242.055 22.0848 237.953 24.518 235.589 28.4806L235.45 28.3416V23.058H227.942V59Z" fill="white"/>
<path d="M32 63V7L0 63H32Z" fill="white"/>
<path d="M39.4909 7H47V62.7818H39.4909V7Z" fill="white"/>
</svg>
