<svg width="268" height="94" viewBox="0 0 268 94" fill="none" xmlns="http://www.w3.org/2000/svg">
<path d="M61.2942 42.4542C61.5027 54.7593 70.6794 60.1818 82.0112 60.1818C91.8831 60.1818 101.755 55.7325 101.755 44.6093C101.755 39.4648 98.6265 33.9032 92.0916 31.9566C89.5194 31.1919 78.5352 28.3416 77.7705 28.133C74.2249 27.1597 71.8612 25.2132 71.8612 21.7372C71.8612 16.7317 76.9362 15.2718 80.9684 15.2718C86.9471 15.2718 91.2574 17.6355 91.6745 24.0313H100.365C100.365 13.6728 91.6745 8.18073 81.316 8.18073C72.3479 8.18073 63.1712 12.8386 63.1712 22.78C63.1712 27.9245 65.6739 33.069 74.1554 35.3631C80.9684 37.2402 85.4872 38.1439 88.9632 39.4648C90.9793 40.2295 93.0649 41.759 93.0649 45.5826C93.0649 49.3367 90.2146 53.0908 82.5674 53.0908C75.6153 53.0908 69.9842 50.1014 69.9842 42.4542H61.2942ZM108.459 59H116.385V9.36257H108.459V59ZM157.625 43.0799C158.946 32.3042 151.994 22.0848 140.662 22.0848C129.956 22.0848 123.282 30.8443 123.282 41.0638C123.282 52.1175 129.608 59.9733 140.87 59.9733C148.726 59.9733 155.4 55.5935 157.138 47.7377H149.63C148.24 51.7004 145.459 53.7165 140.87 53.7165C134.266 53.7165 131.207 48.711 131.207 43.0799H157.625ZM131.207 37.8659C131.416 32.5128 135.17 28.3416 140.662 28.3416C146.015 28.3416 149.421 32.8604 149.699 37.8659H131.207ZM185.827 46.9035C185.827 51.9089 180.404 53.7165 176.928 53.7165C174.147 53.7165 169.628 52.6737 169.628 49.1281C169.628 44.9569 172.687 43.7056 176.094 43.1494C179.57 42.5237 183.393 42.5932 185.827 40.9943V46.9035ZM193.752 32.5128C193.752 24.9351 186.383 22.0848 179.361 22.0848C171.436 22.0848 163.58 24.7961 163.024 34.0422H170.949C171.297 30.1491 174.425 28.3416 178.875 28.3416C182.072 28.3416 186.313 29.1063 186.313 33.208C186.313 37.8659 181.238 37.2402 175.538 38.283C168.864 39.0477 161.703 40.5076 161.703 49.4757C161.703 56.4973 167.543 59.9733 174.008 59.9733C178.249 59.9733 183.324 58.6524 186.452 55.5935C187.078 58.861 189.372 59.9733 192.57 59.9733C193.891 59.9733 196.394 59.4866 197.576 59.0695V53.5774C196.741 53.7165 196.116 53.7165 195.629 53.7165C194.169 53.7165 193.752 52.9517 193.752 51.0052V32.5128ZM202.28 59H210.205V41.898C210.205 33.9727 214.515 29.593 219.938 29.593C221.05 29.593 222.232 29.8015 223.344 29.9406V22.2933C222.649 22.2238 222.162 22.0848 220.355 22.0848C215.488 22.0848 210.761 26.1865 209.857 30.0101H209.718V23.058H202.28V59ZM227.942 59H235.868V37.7963C235.868 32.5128 239.274 28.3416 244.558 28.3416C249.215 28.3416 251.44 30.7748 251.579 36.4059V59H259.504V34.3203C259.504 26.256 254.568 22.0848 246.782 22.0848C242.055 22.0848 237.953 24.518 235.589 28.4806L235.45 28.3416V23.058H227.942V59Z" fill="white"/>
<path d="M32 63V7L0 63H32Z" fill="white"/>
<path d="M39.4909 7H47V62.7818H39.4909V7Z" fill="white"/>
<path d="M58.837 74.845H59.8558L65.8414 90H64.8438L62.9335 85.1394H55.6744L53.7429 90H52.7453L58.837 74.845ZM62.6363 84.3328L59.3889 75.7577H59.3464L55.9716 84.3328H62.6363ZM67.1526 86.3705C67.1809 86.8799 67.2941 87.3327 67.4922 87.7289C67.6903 88.1109 67.945 88.4435 68.2563 88.7265C68.5817 88.9953 68.9567 89.2005 69.3812 89.342C69.8057 89.4835 70.2656 89.5543 70.7609 89.5543C71.1146 89.5543 71.4896 89.526 71.8858 89.4694C72.2962 89.3986 72.6712 89.2783 73.0108 89.1085C73.3645 88.9387 73.6546 88.7052 73.881 88.4081C74.1074 88.0968 74.2206 87.7077 74.2206 87.2407C74.2206 86.6322 74.0367 86.1723 73.6688 85.861C73.3009 85.5497 72.8339 85.3092 72.2679 85.1394C71.716 84.9696 71.1146 84.8351 70.4637 84.7361C69.827 84.6229 69.2256 84.4602 68.6596 84.2479C68.1077 84.0357 67.6478 83.7385 67.2799 83.3564C66.912 82.9602 66.728 82.3871 66.728 81.6372C66.728 81.0995 66.8483 80.6537 67.0889 80.3C67.3294 79.9321 67.6337 79.642 68.0016 79.4297C68.3836 79.2175 68.8081 79.0689 69.2751 78.984C69.7421 78.8849 70.209 78.8354 70.676 78.8354C71.242 78.8354 71.7726 78.8991 72.2679 79.0265C72.7631 79.1538 73.1877 79.359 73.5414 79.642C73.9093 79.925 74.1923 80.2858 74.3904 80.7245C74.6027 81.1631 74.7088 81.6938 74.7088 82.3164H73.9022C73.9022 81.8211 73.8173 81.3966 73.6475 81.0429C73.4919 80.6891 73.2655 80.4061 72.9683 80.1938C72.6853 79.9674 72.3457 79.8047 71.9495 79.7057C71.5533 79.5925 71.1288 79.5359 70.676 79.5359C70.3081 79.5359 69.9331 79.5712 69.551 79.642C69.1831 79.7127 68.8506 79.833 68.5534 80.0028C68.2563 80.1726 68.0086 80.392 67.8105 80.6608C67.6266 80.9297 67.5346 81.2551 67.5346 81.6372C67.5346 82.0758 67.6407 82.4296 67.853 82.6985C68.0652 82.9673 68.3412 83.1866 68.6808 83.3564C69.0345 83.5121 69.4237 83.6394 69.8482 83.7385C70.2868 83.8375 70.7255 83.9366 71.1642 84.0357C71.7019 84.1347 72.2042 84.255 72.6712 84.3965C73.1523 84.5238 73.5626 84.7078 73.9022 84.9483C74.256 85.1748 74.5319 85.4719 74.73 85.8398C74.9281 86.2077 75.0272 86.6747 75.0272 87.2407C75.0272 87.835 74.8928 88.3232 74.6239 88.7052C74.3551 89.0873 74.0154 89.3986 73.6051 89.6392C73.1947 89.8656 72.7348 90.0212 72.2254 90.1061C71.7302 90.2052 71.242 90.2547 70.7609 90.2547C70.1383 90.2547 69.5581 90.1698 69.0204 90C68.4968 89.8443 68.0369 89.6038 67.6407 89.2783C67.2445 88.9387 66.9332 88.5284 66.7068 88.0473C66.4804 87.5662 66.3601 87.0072 66.346 86.3705H67.1526ZM77.0318 74.845H77.8384V84.8847L84.5669 79.0901H85.7343L80.9585 83.1654L86.0739 90H84.9701L80.3218 83.7809L77.8384 85.8823V90H77.0318V74.845ZM88.0243 87.8138H89.1068V90H88.0243V87.8138ZM108.669 79.175C108.641 78.5241 108.499 77.9581 108.244 77.477C108.004 76.9959 107.671 76.5926 107.247 76.2671C106.822 75.9417 106.313 75.7011 105.719 75.5455C105.139 75.3757 104.502 75.2908 103.808 75.2908C103.384 75.2908 102.924 75.3403 102.429 75.4394C101.948 75.5384 101.495 75.7153 101.07 75.97C100.66 76.2105 100.32 76.5431 100.051 76.9676C99.7826 77.3779 99.6482 77.8944 99.6482 78.517C99.6482 79.1255 99.7968 79.6208 100.094 80.0028C100.391 80.3849 100.78 80.6962 101.261 80.9367C101.742 81.1631 102.294 81.3471 102.917 81.4886C103.54 81.6301 104.169 81.7645 104.806 81.8919C105.457 82.0192 106.087 82.1749 106.695 82.3588C107.318 82.5286 107.87 82.7692 108.351 83.0805C108.846 83.3777 109.242 83.7739 109.539 84.2691C109.836 84.7502 109.985 85.3587 109.985 86.0945C109.985 86.8869 109.815 87.552 109.476 88.0897C109.136 88.6274 108.704 89.0661 108.181 89.4057C107.671 89.7453 107.098 89.9858 106.462 90.1274C105.839 90.283 105.238 90.3608 104.657 90.3608C103.766 90.3608 102.931 90.2618 102.153 90.0637C101.375 89.8797 100.695 89.5755 100.115 89.151C99.535 88.7123 99.0751 88.1534 98.7355 87.4742C98.41 86.795 98.2544 85.9672 98.2685 84.9908H99.2025C99.16 85.8257 99.2803 86.5332 99.5633 87.1133C99.8463 87.6794 100.235 88.1463 100.731 88.5142C101.24 88.8821 101.834 89.151 102.514 89.3208C103.193 89.4764 103.907 89.5543 104.657 89.5543C105.11 89.5543 105.591 89.4977 106.101 89.3845C106.624 89.2713 107.098 89.0802 107.523 88.8114C107.961 88.5425 108.322 88.1888 108.605 87.7501C108.902 87.3114 109.051 86.7596 109.051 86.0945C109.051 85.4578 108.902 84.9413 108.605 84.5451C108.308 84.1347 107.912 83.8092 107.417 83.5687C106.936 83.314 106.384 83.1159 105.761 82.9744C105.153 82.8187 104.523 82.6772 103.872 82.5499C103.235 82.4225 102.606 82.2739 101.983 82.1041C101.36 81.9343 100.809 81.7079 100.327 81.4249C99.8463 81.1278 99.4572 80.7528 99.16 80.3C98.8629 79.833 98.7143 79.2387 98.7143 78.517C98.7143 77.7954 98.8629 77.1798 99.16 76.6704C99.4713 76.1469 99.8675 75.7294 100.349 75.4181C100.844 75.0927 101.396 74.8592 102.004 74.7177C102.613 74.562 103.214 74.4842 103.808 74.4842C104.601 74.4842 105.337 74.5762 106.016 74.7601C106.709 74.9299 107.311 75.2059 107.82 75.5879C108.344 75.9558 108.761 76.4369 109.072 77.0313C109.384 77.6256 109.56 78.3402 109.603 79.175H108.669ZM114.716 89.0661H114.758L117.73 79.0901H118.812L121.805 89.0661H121.848L124.904 79.0901H125.795L122.293 90H121.296L118.303 80.1089H118.26L115.246 90H114.228L110.768 79.0901H111.638L114.716 89.0661ZM127.135 77.0313V74.845H127.941V77.0313H127.135ZM127.135 90V79.0901H127.941V90H127.135ZM131.507 81.5947H131.549C131.634 81.3259 131.775 81.0287 131.974 80.7033C132.172 80.3778 132.433 80.0806 132.759 79.8118C133.084 79.5288 133.473 79.2953 133.926 79.1114C134.393 78.9274 134.924 78.8354 135.518 78.8354C136.353 78.8354 137.075 78.9911 137.683 79.3024C138.306 79.6137 138.815 80.0311 139.211 80.5547C139.622 81.0782 139.926 81.6867 140.124 82.3801C140.322 83.0734 140.421 83.8022 140.421 84.5663C140.421 85.4012 140.322 86.1653 140.124 86.8586C139.926 87.552 139.622 88.1534 139.211 88.6628C138.815 89.1581 138.306 89.5472 137.683 89.8302C137.075 90.1132 136.353 90.2547 135.518 90.2547C134.613 90.2547 133.806 90.0566 133.098 89.6604C132.391 89.2642 131.874 88.6203 131.549 87.7289H131.507V93.9055H130.7V79.0901H131.507V81.5947ZM135.518 89.5543C136.226 89.5543 136.834 89.4198 137.344 89.151C137.867 88.8821 138.292 88.5213 138.617 88.0685C138.957 87.6157 139.204 87.0921 139.36 86.4978C139.53 85.8893 139.615 85.2455 139.615 84.5663C139.615 83.9437 139.537 83.3352 139.381 82.7409C139.226 82.1324 138.985 81.5947 138.66 81.1278C138.334 80.6467 137.91 80.2646 137.386 79.9816C136.877 79.6844 136.254 79.5359 135.518 79.5359C134.797 79.5359 134.181 79.6774 133.672 79.9604C133.162 80.2434 132.745 80.6184 132.419 81.0853C132.108 81.5523 131.882 82.09 131.74 82.6985C131.599 83.2928 131.528 83.9154 131.528 84.5663C131.528 85.2172 131.591 85.8469 131.719 86.4554C131.846 87.0497 132.058 87.5803 132.356 88.0473C132.667 88.5001 133.077 88.868 133.587 89.151C134.11 89.4198 134.754 89.5543 135.518 89.5543ZM142.622 84.6512V84.7785C142.622 85.4153 142.706 86.0238 142.876 86.6039C143.046 87.1841 143.294 87.6935 143.619 88.1322C143.959 88.5708 144.376 88.9175 144.871 89.1722C145.381 89.4269 145.968 89.5543 146.633 89.5543C147.723 89.5543 148.586 89.2713 149.223 88.7052C149.859 88.1251 150.298 87.3256 150.539 86.3068H151.345C151.105 87.5803 150.581 88.5567 149.775 89.2359C148.982 89.9151 147.928 90.2547 146.612 90.2547C145.805 90.2547 145.098 90.1132 144.489 89.8302C143.895 89.533 143.393 89.1368 142.982 88.6416C142.586 88.1322 142.289 87.5378 142.091 86.8586C141.893 86.1653 141.794 85.4224 141.794 84.63C141.794 83.8658 141.893 83.1371 142.091 82.4437C142.303 81.7362 142.614 81.1207 143.025 80.5971C143.435 80.0594 143.945 79.6349 144.553 79.3236C145.176 78.9981 145.904 78.8354 146.739 78.8354C147.503 78.8354 148.176 78.9769 148.756 79.2599C149.35 79.5429 149.845 79.9321 150.241 80.4273C150.638 80.9084 150.935 81.4745 151.133 82.1254C151.345 82.7621 151.451 83.4484 151.451 84.1842C151.451 84.255 151.444 84.3399 151.43 84.4389C151.43 84.5238 151.43 84.5946 151.43 84.6512H142.622ZM150.624 83.9508C150.595 83.3564 150.496 82.7975 150.326 82.2739C150.157 81.7362 149.902 81.2693 149.562 80.8731C149.237 80.4627 148.834 80.1372 148.352 79.8967C147.885 79.6561 147.348 79.5359 146.739 79.5359C146.088 79.5359 145.515 79.6632 145.02 79.9179C144.525 80.1585 144.107 80.4839 143.768 80.8943C143.428 81.2905 143.166 81.7575 142.982 82.2952C142.798 82.8329 142.685 83.3847 142.643 83.9508H150.624ZM154.52 87.8138H155.602V90H154.52V87.8138ZM165.273 74.845H166.207V89.1934H174.803V90H165.273V74.845ZM175.683 84.6512V84.7785C175.683 85.4153 175.768 86.0238 175.937 86.6039C176.107 87.1841 176.355 87.6935 176.68 88.1322C177.02 88.5708 177.437 88.9175 177.933 89.1722C178.442 89.4269 179.029 89.5543 179.694 89.5543C180.784 89.5543 181.647 89.2713 182.284 88.7052C182.921 88.1251 183.359 87.3256 183.6 86.3068H184.406C184.166 87.5803 183.642 88.5567 182.836 89.2359C182.043 89.9151 180.989 90.2547 179.673 90.2547C178.866 90.2547 178.159 90.1132 177.551 89.8302C176.956 89.533 176.454 89.1368 176.044 88.6416C175.647 88.1322 175.35 87.5378 175.152 86.8586C174.954 86.1653 174.855 85.4224 174.855 84.63C174.855 83.8658 174.954 83.1371 175.152 82.4437C175.364 81.7362 175.676 81.1207 176.086 80.5971C176.496 80.0594 177.006 79.6349 177.614 79.3236C178.237 78.9981 178.966 78.8354 179.8 78.8354C180.565 78.8354 181.237 78.9769 181.817 79.2599C182.411 79.5429 182.906 79.9321 183.303 80.4273C183.699 80.9084 183.996 81.4745 184.194 82.1254C184.406 82.7621 184.512 83.4484 184.512 84.1842C184.512 84.255 184.505 84.3399 184.491 84.4389C184.491 84.5238 184.491 84.5946 184.491 84.6512H175.683ZM183.685 83.9508C183.656 83.3564 183.557 82.7975 183.388 82.2739C183.218 81.7362 182.963 81.2693 182.623 80.8731C182.298 80.4627 181.895 80.1372 181.414 79.8967C180.947 79.6561 180.409 79.5359 179.8 79.5359C179.149 79.5359 178.576 79.6632 178.081 79.9179C177.586 80.1585 177.168 80.4839 176.829 80.8943C176.489 81.2905 176.227 81.7575 176.044 82.2952C175.86 82.8329 175.746 83.3847 175.704 83.9508H183.685ZM193.609 87.835H193.566C193.439 88.1605 193.255 88.4718 193.014 88.7689C192.774 89.0519 192.477 89.3066 192.123 89.533C191.783 89.7594 191.394 89.9363 190.956 90.0637C190.517 90.191 190.036 90.2547 189.512 90.2547C188.352 90.2547 187.453 90.0071 186.817 89.5118C186.18 89.0024 185.861 88.2241 185.861 87.177C185.861 86.5403 185.989 86.0238 186.243 85.6276C186.498 85.2172 186.817 84.8988 187.199 84.6724C187.595 84.4319 188.026 84.2621 188.493 84.163C188.974 84.064 189.434 83.9932 189.873 83.9508L191.125 83.8446C191.706 83.8022 192.158 83.7385 192.484 83.6536C192.823 83.5545 193.078 83.4272 193.248 83.2715C193.418 83.1017 193.524 82.8895 193.566 82.6348C193.609 82.3801 193.63 82.0617 193.63 81.6796C193.63 81.3825 193.573 81.1065 193.46 80.8518C193.347 80.5971 193.17 80.3707 192.93 80.1726C192.689 79.9745 192.378 79.8189 191.996 79.7057C191.614 79.5925 191.147 79.5359 190.595 79.5359C189.618 79.5359 188.826 79.7764 188.217 80.2575C187.623 80.7386 187.298 81.4674 187.241 82.4437H186.435C186.491 81.241 186.873 80.3424 187.581 79.7481C188.302 79.1397 189.321 78.8354 190.637 78.8354C191.953 78.8354 192.908 79.0972 193.503 79.6208C194.111 80.1302 194.415 80.8023 194.415 81.6372V87.9836C194.415 88.1392 194.415 88.2949 194.415 88.4505C194.429 88.6062 194.458 88.7477 194.5 88.8751C194.543 89.0024 194.613 89.1085 194.712 89.1934C194.811 89.2642 194.953 89.2996 195.137 89.2996C195.278 89.2996 195.477 89.2783 195.731 89.2359V89.9151C195.519 89.9717 195.3 90 195.073 90C194.748 90 194.486 89.9575 194.288 89.8726C194.104 89.7877 193.962 89.6745 193.863 89.533C193.764 89.3915 193.694 89.2288 193.651 89.0449C193.623 88.8468 193.609 88.6345 193.609 88.4081V87.835ZM193.609 83.8022C193.411 84.0427 193.106 84.2055 192.696 84.2904C192.3 84.3753 191.854 84.4389 191.359 84.4814L190 84.6087C189.604 84.6512 189.208 84.7149 188.812 84.7998C188.416 84.8705 188.055 84.9979 187.729 85.1818C187.418 85.3658 187.163 85.6205 186.965 85.9459C186.767 86.2572 186.668 86.6676 186.668 87.177C186.668 87.9836 186.923 88.585 187.432 88.9812C187.942 89.3632 188.642 89.5543 189.533 89.5543C190.453 89.5543 191.182 89.3915 191.72 89.0661C192.257 88.7265 192.668 88.3444 192.951 87.9199C193.234 87.4812 193.411 87.0638 193.481 86.6676C193.566 86.2572 193.609 85.9813 193.609 85.8398V83.8022ZM197.79 81.5098H197.854C197.953 81.1561 198.13 80.8235 198.384 80.5122C198.653 80.2009 198.972 79.9321 199.34 79.7057C199.722 79.4793 200.139 79.3095 200.592 79.1963C201.059 79.0689 201.54 79.0123 202.035 79.0265V79.833C201.611 79.7764 201.123 79.8189 200.571 79.9604C200.033 80.1019 199.516 80.4132 199.021 80.8943C198.823 81.1065 198.646 81.3117 198.491 81.5098C198.349 81.7079 198.229 81.9273 198.13 82.1678C198.031 82.4084 197.953 82.6772 197.896 82.9744C197.84 83.2715 197.804 83.6253 197.79 84.0357V90H196.984V79.0901H197.79V81.5098ZM202.891 79.0901H203.698V81.4249H203.74C203.882 81.0146 204.08 80.6537 204.334 80.3424C204.603 80.017 204.907 79.741 205.247 79.5146C205.601 79.2882 205.983 79.1184 206.393 79.0052C206.804 78.892 207.221 78.8354 207.646 78.8354C208.282 78.8354 208.82 78.9132 209.259 79.0689C209.711 79.2246 210.079 79.4297 210.362 79.6844C210.645 79.9391 210.865 80.2292 211.02 80.5547C211.19 80.866 211.31 81.1844 211.381 81.5098C211.452 81.8353 211.494 82.1537 211.509 82.465C211.523 82.7621 211.53 83.0239 211.53 83.2503V90H210.723V83.1017C210.723 82.8329 210.702 82.4933 210.66 82.0829C210.617 81.6726 210.49 81.2834 210.277 80.9155C210.079 80.5335 209.768 80.208 209.344 79.9391C208.933 79.6703 208.36 79.5359 207.624 79.5359C207.002 79.5359 206.45 79.6491 205.969 79.8755C205.488 80.1019 205.077 80.4203 204.738 80.8306C204.398 81.2268 204.136 81.7079 203.952 82.2739C203.782 82.8258 203.698 83.4343 203.698 84.0993V90H202.891V79.0901Z" fill="white"/>
</svg>
